<svg xmlns="http://www.w3.org/2000/svg" xmlns:xlink="http://www.w3.org/1999/xlink" width="1920" zoomAndPan="magnify" viewBox="0 0 1440 809.999993" height="1080" preserveAspectRatio="xMidYMid meet" version="1.2"><defs><clipPath id="f65ecb2fa7"><rect x="0" width="812" y="0" height="79"/></clipPath></defs><g id="a980b9d879"><g transform="matrix(1,0,0,1,314,365)"><g clip-path="url(#f65ecb2fa7)"><path style=" stroke:none;fill-rule:nonzero;fill:#b8c7ff;fill-opacity:1;" d="M 112.007812 6.800781 C 114.589844 6.800781 116.34375 7.636719 117.273438 9.296875 C 118.101562 10.742188 118.523438 13.246094 118.523438 16.824219 L 118.523438 68.058594 C 118.523438 69.253906 118.226562 70.007812 117.644531 70.320312 C 117.078125 70.613281 116.613281 70.757812 116.261719 70.757812 L 109.613281 70.757812 C 109.292969 70.757812 108.84375 70.613281 108.261719 70.320312 C 107.695312 70.007812 107.417969 69.253906 107.417969 68.058594 L 107.417969 21.449219 C 107.417969 21.40625 107.417969 21.371094 107.417969 21.347656 C 107.417969 21.332031 107.417969 21.3125 107.417969 21.3125 L 107.046875 21.3125 C 106.929688 21.3125 106.878906 21.363281 106.878906 21.449219 L 93.546875 54.320312 C 93.023438 55.941406 92.484375 57.34375 91.925781 58.507812 C 91.65625 59.097656 91.351562 59.621094 91.015625 60.09375 C 90.679688 60.546875 90.359375 60.96875 90.070312 61.375 C 89.277344 62.210938 88.449219 62.785156 87.574219 63.097656 C 86.738281 63.417969 85.699219 63.570312 84.46875 63.570312 L 81.296875 63.570312 C 80.164062 63.570312 79.136719 63.417969 78.191406 63.097656 C 77.734375 62.945312 77.3125 62.707031 76.910156 62.386719 C 76.519531 62.074219 76.132812 61.738281 75.726562 61.375 C 75.050781 60.566406 74.425781 59.613281 73.871094 58.507812 C 73.347656 57.34375 72.800781 55.941406 72.21875 54.320312 L 58.988281 21.550781 C 58.917969 21.398438 58.835938 21.3125 58.75 21.3125 L 58.347656 21.3125 C 58.347656 21.3125 58.347656 21.332031 58.347656 21.347656 C 58.347656 21.371094 58.347656 21.40625 58.347656 21.449219 L 58.347656 68.058594 C 58.347656 69.253906 58.074219 70.007812 57.535156 70.320312 C 56.996094 70.613281 56.539062 70.757812 56.1875 70.757812 L 49.503906 70.757812 C 49.140625 70.757812 48.675781 70.613281 48.121094 70.320312 C 47.554688 70.007812 47.277344 69.253906 47.277344 68.058594 L 47.277344 16.824219 C 47.277344 13.246094 47.6875 10.742188 48.523438 9.296875 C 49.445312 7.636719 51.222656 6.800781 53.855469 6.800781 L 60.976562 6.800781 C 62.125 6.800781 63.035156 6.902344 63.710938 7.105469 C 64.589844 7.375 65.308594 7.773438 65.871094 8.285156 C 66.140625 8.605469 66.410156 8.945312 66.683594 9.296875 C 66.96875 9.660156 67.222656 10.074219 67.425781 10.546875 C 67.628906 11.003906 67.839844 11.527344 68.066406 12.132812 C 68.308594 12.722656 68.539062 13.375 68.742188 14.089844 L 82.375 48.347656 C 82.441406 48.507812 82.492188 48.609375 82.542969 48.652344 C 82.585938 48.675781 82.613281 48.683594 82.613281 48.683594 L 83.386719 48.683594 C 83.496094 48.683594 83.574219 48.574219 83.625 48.347656 L 97.359375 14.089844 C 97.605469 13.375 97.832031 12.722656 98.035156 12.132812 C 98.238281 11.527344 98.449219 11.003906 98.675781 10.546875 C 98.921875 10.074219 99.167969 9.660156 99.417969 9.296875 C 99.691406 8.945312 99.960938 8.605469 100.230469 8.285156 C 100.835938 7.730469 101.527344 7.332031 102.320312 7.105469 C 102.972656 6.902344 103.875 6.800781 105.023438 6.800781 Z M 112.007812 6.800781 "/><path style=" stroke:none;fill-rule:nonzero;fill:#b8c7ff;fill-opacity:1;" d="M 197.28125 56.820312 C 197.636719 56.820312 198.101562 56.96875 198.664062 57.257812 C 199.246094 57.527344 199.542969 58.261719 199.542969 59.453125 L 199.542969 67.988281 C 199.542969 69.164062 199.246094 69.898438 198.664062 70.183594 C 198.101562 70.480469 197.636719 70.621094 197.28125 70.621094 L 169.773438 70.621094 C 168.0625 70.621094 166.476562 70.519531 165.015625 70.320312 C 163.574219 70.097656 162.265625 69.761719 161.101562 69.304688 C 158.554688 68.429688 156.527344 67.003906 155.027344 65.019531 C 153.472656 63.019531 152.367188 60.488281 151.71875 57.425781 C 151.449219 56.144531 151.222656 54.726562 151.042969 53.171875 C 150.859375 51.621094 150.75 49.949219 150.707031 48.144531 L 150.707031 47.738281 L 150.839844 37.984375 C 150.992188 37.402344 151.289062 36.753906 151.71875 36.027344 C 152.839844 34.027344 154.597656 32.949219 156.984375 32.789062 L 196.976562 32.6875 C 197.289062 32.6875 197.726562 32.839844 198.292969 33.125 C 198.851562 33.421875 199.136719 34.164062 199.136719 35.355469 L 199.136719 41.460938 C 199.136719 42.660156 198.851562 43.410156 198.292969 43.722656 C 197.726562 44.019531 197.289062 44.164062 196.976562 44.164062 L 162.316406 44.164062 C 162.316406 44.164062 162.300781 44.457031 162.28125 45.039062 C 162.257812 45.605469 162.230469 46.246094 162.214844 46.964844 C 162.191406 47.6875 162.179688 48.339844 162.179688 48.921875 C 162.179688 49.488281 162.179688 49.765625 162.179688 49.765625 C 162.222656 49.96875 162.25 50.195312 162.25 50.441406 C 162.25 50.667969 162.265625 50.878906 162.316406 51.082031 C 162.519531 52.523438 162.957031 53.679688 163.632812 54.558594 C 164.257812 55.351562 165.03125 55.925781 165.960938 56.277344 C 166.542969 56.4375 167.152344 56.574219 167.785156 56.683594 C 168.433594 56.777344 169.175781 56.820312 170.011719 56.820312 Z M 157.523438 33.394531 Z M 197.382812 6.667969 C 197.667969 6.667969 198.101562 6.828125 198.664062 7.140625 C 199.246094 7.433594 199.542969 8.175781 199.542969 9.367188 L 199.542969 15.507812 C 199.542969 16.679688 199.246094 17.425781 198.664062 17.734375 C 198.101562 18.058594 197.667969 18.207031 197.382812 18.207031 L 152.796875 18.140625 C 152.476562 18.140625 152.054688 17.996094 151.515625 17.703125 C 150.976562 17.414062 150.707031 16.679688 150.707031 15.507812 L 150.707031 9.433594 C 150.707031 8.203125 150.976562 7.433594 151.515625 7.140625 C 152.054688 6.828125 152.476562 6.667969 152.796875 6.667969 Z M 197.382812 6.667969 "/><path style=" stroke:none;fill-rule:nonzero;fill:#b8c7ff;fill-opacity:1;" d="M 285.292969 6.800781 C 285.644531 6.800781 286.109375 6.953125 286.675781 7.238281 C 287.257812 7.535156 287.550781 8.269531 287.550781 9.433594 L 287.550781 15.507812 C 287.550781 16.792969 287.257812 17.585938 286.675781 17.871094 C 286.109375 18.140625 285.644531 18.277344 285.292969 18.277344 L 265.378906 18.277344 L 265.378906 68.058594 C 265.378906 69.253906 265.089844 70 264.535156 70.285156 C 263.996094 70.554688 263.539062 70.691406 263.183594 70.691406 L 256.0625 70.691406 C 255.742188 70.691406 255.304688 70.554688 254.746094 70.285156 C 254.183594 70 253.902344 69.253906 253.902344 68.058594 L 253.902344 18.277344 L 233.957031 18.277344 C 233.59375 18.277344 233.128906 18.140625 232.574219 17.871094 C 232.007812 17.585938 231.730469 16.792969 231.730469 15.507812 L 231.730469 9.433594 C 231.730469 8.269531 232.007812 7.535156 232.574219 7.238281 C 233.128906 6.953125 233.59375 6.800781 233.957031 6.800781 Z M 285.292969 6.800781 "/><path style=" stroke:none;fill-rule:nonzero;fill:#b8c7ff;fill-opacity:1;" d="M 361.277344 14.023438 L 383.046875 67.753906 C 383.359375 68.480469 383.433594 69.09375 383.28125 69.609375 C 383.230469 69.8125 383.089844 70.066406 382.84375 70.351562 C 382.617188 70.621094 382.203125 70.757812 381.59375 70.757812 L 373.292969 70.757812 C 372.210938 70.757812 371.453125 70.199219 371.03125 69.070312 L 351.828125 21.078125 C 351.761719 20.96875 351.726562 20.910156 351.726562 20.910156 L 351.421875 20.910156 C 351.421875 20.910156 351.40625 20.933594 351.390625 20.976562 C 351.363281 21 351.328125 21.0625 351.289062 21.144531 L 341.363281 46.253906 L 350.949219 46.253906 C 352.046875 46.253906 352.804688 46.777344 353.210938 47.808594 L 356.011719 54.726562 C 356.257812 55.605469 356.15625 56.347656 355.707031 56.953125 C 355.277344 57.695312 354.605469 58.066406 353.683594 58.066406 L 336.707031 58.066406 L 332.285156 69.136719 C 331.855469 70.21875 331.140625 70.757812 330.125 70.757812 L 321.585938 70.757812 C 320.953125 70.757812 320.523438 70.621094 320.304688 70.351562 C 320.078125 70.066406 319.933594 69.8125 319.867188 69.609375 C 319.707031 69.136719 319.765625 68.523438 320.035156 67.753906 L 341.667969 14.023438 C 342.699219 11.28125 343.835938 9.390625 345.078125 8.355469 C 345.230469 8.269531 345.414062 8.144531 345.617188 7.984375 C 345.820312 7.832031 346.023438 7.695312 346.226562 7.578125 C 347.777344 6.496094 349.566406 5.957031 351.589844 5.957031 C 353.699219 5.957031 355.617188 6.617188 357.328125 7.914062 C 359.035156 9.199219 360.199219 10.84375 360.804688 12.84375 C 360.914062 13.003906 361.007812 13.195312 361.074219 13.417969 C 361.160156 13.617188 361.226562 13.820312 361.277344 14.023438 Z M 361.277344 14.023438 "/><path style=" stroke:none;fill-rule:nonzero;fill:#b8c7ff;fill-opacity:1;" d="M 460.359375 59.214844 C 460.714844 59.214844 461.171875 59.375 461.710938 59.6875 C 462.25 60.007812 462.519531 60.75 462.519531 61.914062 L 462.519531 68.058594 C 462.519531 69.253906 462.25 70.007812 461.710938 70.320312 C 461.171875 70.613281 460.714844 70.757812 460.359375 70.757812 L 434.777344 70.757812 C 431.378906 70.757812 428.484375 70.320312 426.105469 69.441406 C 423.671875 68.613281 421.65625 67.171875 420.0625 65.121094 C 418.550781 63.257812 417.4375 60.726562 416.722656 57.527344 C 415.996094 54.355469 415.640625 50.660156 415.640625 46.421875 L 415.640625 9.535156 C 415.640625 8.304688 415.917969 7.535156 416.484375 7.238281 C 417.042969 6.953125 417.507812 6.800781 417.867188 6.800781 L 425.023438 6.800781 C 425.3125 6.800781 425.742188 6.953125 426.304688 7.238281 C 426.886719 7.535156 427.183594 8.304688 427.183594 9.535156 L 427.183594 47.738281 C 427.183594 48.886719 427.199219 49.960938 427.25 50.945312 C 427.320312 51.917969 427.421875 52.785156 427.554688 53.546875 C 427.773438 54.945312 428.230469 56.078125 428.90625 56.953125 C 429.417969 57.789062 430.164062 58.363281 431.132812 58.675781 C 432.160156 59.039062 433.511719 59.214844 435.183594 59.214844 Z M 460.359375 59.214844 "/><path style=" stroke:none;fill-rule:nonzero;fill:#d9d9d9;fill-opacity:1;" d="M 552.125 6.800781 C 552.773438 6.800781 553.238281 7.140625 553.507812 7.8125 C 553.660156 8.445312 553.585938 9.046875 553.273438 9.601562 L 529.78125 51.082031 L 529.78125 68.058594 C 529.78125 69.253906 529.488281 70 528.90625 70.285156 C 528.339844 70.554688 527.910156 70.691406 527.621094 70.691406 L 520.46875 70.691406 C 520.171875 70.691406 519.734375 70.554688 519.152344 70.285156 C 518.585938 70 518.308594 69.253906 518.308594 68.058594 L 518.308594 51.082031 L 495.054688 9.601562 C 494.734375 9.046875 494.65625 8.472656 494.816406 7.882812 C 494.96875 7.164062 495.433594 6.800781 496.203125 6.800781 L 505.042969 6.800781 C 505.398438 6.800781 505.785156 6.894531 506.191406 7.070312 C 506.613281 7.257812 506.984375 7.660156 507.304688 8.285156 L 524.214844 39.300781 L 541.257812 8.21875 C 541.570312 7.636719 541.933594 7.257812 542.335938 7.070312 C 542.742188 6.894531 543.128906 6.800781 543.519531 6.800781 Z M 552.125 6.800781 "/><path style=" stroke:none;fill-rule:nonzero;fill:#d9d9d9;fill-opacity:1;" d="M 595.058594 6.800781 C 595.367188 6.800781 595.808594 6.960938 596.371094 7.273438 C 596.957031 7.59375 597.25 8.34375 597.25 9.535156 L 597.25 68.058594 C 597.25 69.253906 596.957031 70.007812 596.371094 70.320312 C 595.808594 70.613281 595.367188 70.757812 595.058594 70.757812 L 587.933594 70.757812 C 587.613281 70.757812 587.175781 70.613281 586.621094 70.320312 C 586.054688 70.007812 585.777344 69.253906 585.777344 68.058594 L 585.777344 9.535156 C 585.777344 8.34375 586.054688 7.59375 586.621094 7.273438 C 587.175781 6.960938 587.613281 6.800781 587.933594 6.800781 Z M 595.058594 6.800781 "/><path style=" stroke:none;fill-rule:nonzero;fill:#d9d9d9;fill-opacity:1;" d="M 676.78125 6.800781 C 677.09375 6.800781 677.53125 6.960938 678.097656 7.273438 C 678.679688 7.59375 678.972656 8.34375 678.972656 9.535156 L 678.972656 15.507812 C 678.972656 16.75 678.679688 17.523438 678.097656 17.835938 C 677.53125 18.132812 677.09375 18.277344 676.78125 18.277344 L 648.96875 18.277344 C 647.214844 18.277344 645.863281 18.460938 644.917969 18.816406 C 643.992188 19.136719 643.214844 19.710938 642.589844 20.539062 C 642.027344 21.304688 641.585938 22.445312 641.273438 23.945312 C 641.183594 24.671875 641.089844 25.515625 641.003906 26.476562 C 640.9375 27.421875 640.902344 28.492188 640.902344 29.683594 L 640.902344 47.738281 C 640.902344 48.886719 640.9375 49.960938 641.003906 50.945312 C 641.089844 51.917969 641.183594 52.785156 641.273438 53.546875 C 641.425781 54.289062 641.613281 54.945312 641.816406 55.503906 C 642.015625 56.066406 642.269531 56.546875 642.589844 56.953125 C 643.214844 57.789062 643.992188 58.363281 644.917969 58.675781 C 645.863281 59.039062 647.214844 59.214844 648.96875 59.214844 L 676.78125 59.214844 C 677.09375 59.214844 677.53125 59.375 678.097656 59.6875 C 678.679688 60.007812 678.972656 60.75 678.972656 61.914062 L 678.972656 68.058594 C 678.972656 69.253906 678.679688 70.007812 678.097656 70.320312 C 677.53125 70.613281 677.09375 70.757812 676.78125 70.757812 L 648.566406 70.757812 C 645.207031 70.757812 642.296875 70.320312 639.824219 69.441406 C 637.4375 68.613281 635.445312 67.195312 633.851562 65.1875 C 632.230469 63.121094 631.089844 60.589844 630.441406 57.59375 C 630.078125 56.042969 629.816406 54.347656 629.664062 52.5 C 629.503906 50.632812 629.429688 48.609375 629.429688 46.421875 L 629.429688 31.066406 C 629.429688 28.957031 629.503906 26.976562 629.664062 25.128906 C 629.816406 23.261719 630.078125 21.574219 630.441406 20.066406 C 631.089844 16.960938 632.230469 14.429688 633.851562 12.472656 C 635.335938 10.515625 637.324219 9.0625 639.824219 8.117188 C 642.296875 7.238281 645.207031 6.800781 648.566406 6.800781 Z M 676.78125 6.800781 "/><path style=" stroke:none;fill-rule:nonzero;fill:#d9d9d9;fill-opacity:1;" d="M 748.578125 32.550781 C 752.601562 32.550781 755.683594 33.96875 757.824219 36.804688 C 759.824219 39.597656 760.828125 43.519531 760.828125 48.582031 L 760.828125 55.402344 C 760.828125 59.855469 759.851562 63.5 757.894531 66.335938 C 755.867188 69.238281 752.714844 70.691406 748.445312 70.691406 L 713.480469 70.691406 C 713.117188 70.691406 712.644531 70.554688 712.0625 70.285156 C 711.496094 70 711.21875 69.253906 711.21875 68.058594 L 711.21875 61.847656 C 711.21875 60.65625 711.496094 59.921875 712.0625 59.652344 C 712.644531 59.367188 713.117188 59.214844 713.480469 59.214844 L 746.554688 59.214844 C 747.230469 59.214844 747.710938 59.105469 748.003906 58.878906 C 748.292969 58.632812 748.519531 58.40625 748.679688 58.203125 C 749.128906 57.441406 749.355469 56.363281 749.355469 54.960938 L 749.355469 48.28125 C 749.355469 46.375 749.035156 45.191406 748.410156 44.734375 C 747.800781 44.265625 747.210938 44.027344 746.65625 44.027344 L 723.402344 44.027344 C 721.78125 44.027344 720.128906 43.824219 718.441406 43.421875 C 716.769531 43 715.34375 41.984375 714.152344 40.382812 C 712.144531 37.546875 711.148438 33.414062 711.148438 27.960938 L 711.148438 22.089844 C 711.148438 17.550781 712.144531 13.878906 714.152344 11.085938 C 716.179688 8.234375 719.300781 6.800781 723.535156 6.800781 L 756.949219 6.800781 C 757.261719 6.800781 757.699219 6.953125 758.265625 7.238281 C 758.847656 7.535156 759.140625 8.269531 759.140625 9.433594 L 759.140625 15.644531 C 759.140625 16.84375 758.847656 17.585938 758.265625 17.871094 C 757.699219 18.140625 757.261719 18.277344 756.949219 18.277344 L 725.390625 18.277344 C 724.734375 18.277344 724.261719 18.394531 723.976562 18.613281 C 723.679688 18.816406 723.453125 19.042969 723.300781 19.289062 C 722.894531 20.125 722.691406 21.210938 722.691406 22.5625 L 722.691406 28.300781 C 722.691406 30.214844 722.980469 31.40625 723.570312 31.878906 C 724.175781 32.332031 724.757812 32.550781 725.324219 32.550781 Z M 748.578125 32.550781 "/></g></g></g></svg>