<?xml version="1.0" encoding="utf-8"?>
<svg xmlns="http://www.w3.org/2000/svg">
  <g id="f439f3b2dd" transform="matrix(1, 0, 0, 1, 70.163232, -29.635876)">
    <path style=" stroke:none;fill-rule:nonzero;fill:#b8c7ff;fill-opacity:1;" d="M 38.441406 124.859375 C 39.335938 124.859375 39.945312 125.148438 40.265625 125.722656 C 40.550781 126.222656 40.699219 127.089844 40.699219 128.328125 L 40.699219 146.070312 C 40.699219 146.484375 40.59375 146.746094 40.394531 146.855469 C 40.199219 146.957031 40.039062 147.007812 39.914062 147.007812 L 37.613281 147.007812 C 37.5 147.007812 37.347656 146.957031 37.144531 146.855469 C 36.949219 146.746094 36.851562 146.484375 36.851562 146.070312 L 36.851562 129.929688 C 36.851562 129.917969 36.851562 129.90625 36.851562 129.894531 C 36.851562 129.890625 36.851562 129.882812 36.851562 129.882812 L 36.722656 129.882812 C 36.683594 129.882812 36.664062 129.902344 36.664062 129.929688 L 32.050781 141.316406 C 31.867188 141.875 31.679688 142.359375 31.488281 142.765625 C 31.394531 142.96875 31.289062 143.148438 31.171875 143.3125 C 31.054688 143.472656 30.945312 143.617188 30.84375 143.757812 C 30.570312 144.046875 30.285156 144.246094 29.980469 144.351562 C 29.691406 144.464844 29.332031 144.515625 28.90625 144.515625 L 27.804688 144.515625 C 27.414062 144.515625 27.058594 144.464844 26.730469 144.351562 C 26.574219 144.300781 26.425781 144.21875 26.285156 144.109375 C 26.152344 144 26.019531 143.882812 25.878906 143.757812 C 25.644531 143.476562 25.429688 143.148438 25.234375 142.765625 C 25.054688 142.359375 24.863281 141.875 24.664062 141.316406 L 20.082031 129.964844 C 20.058594 129.914062 20.027344 129.882812 20 129.882812 L 19.859375 129.882812 C 19.859375 129.882812 19.859375 129.890625 19.859375 129.894531 C 19.859375 129.90625 19.859375 129.917969 19.859375 129.929688 L 19.859375 146.070312 C 19.859375 146.484375 19.765625 146.746094 19.578125 146.855469 C 19.390625 146.957031 19.234375 147.007812 19.109375 147.007812 L 16.796875 147.007812 C 16.671875 147.007812 16.511719 146.957031 16.316406 146.855469 C 16.121094 146.746094 16.023438 146.484375 16.023438 146.070312 L 16.023438 128.328125 C 16.023438 127.089844 16.167969 126.222656 16.457031 125.722656 C 16.777344 125.148438 17.394531 124.859375 18.304688 124.859375 L 20.769531 124.859375 C 21.167969 124.859375 21.484375 124.894531 21.71875 124.964844 C 22.019531 125.058594 22.269531 125.195312 22.464844 125.371094 C 22.558594 125.484375 22.652344 125.601562 22.746094 125.722656 C 22.84375 125.847656 22.933594 125.992188 23.003906 126.15625 C 23.074219 126.3125 23.144531 126.496094 23.226562 126.703125 C 23.308594 126.910156 23.386719 127.132812 23.457031 127.382812 L 28.179688 139.246094 C 28.203125 139.300781 28.222656 139.335938 28.238281 139.351562 C 28.253906 139.359375 28.261719 139.363281 28.261719 139.363281 L 28.53125 139.363281 C 28.570312 139.363281 28.59375 139.324219 28.613281 139.246094 L 33.371094 127.382812 C 33.453125 127.132812 33.535156 126.910156 33.601562 126.703125 C 33.671875 126.496094 33.746094 126.3125 33.824219 126.15625 C 33.910156 125.992188 33.996094 125.847656 34.082031 125.722656 C 34.175781 125.601562 34.269531 125.484375 34.363281 125.371094 C 34.574219 125.179688 34.8125 125.042969 35.085938 124.964844 C 35.3125 124.894531 35.625 124.859375 36.023438 124.859375 Z M 38.441406 124.859375 "/>
    <path style=" stroke:none;fill-rule:nonzero;fill:#b8c7ff;fill-opacity:1;" d="M 67.972656 142.179688 C 68.09375 142.179688 68.253906 142.230469 68.449219 142.332031 C 68.652344 142.425781 68.753906 142.679688 68.753906 143.089844 L 68.753906 146.046875 C 68.753906 146.453125 68.652344 146.707031 68.449219 146.808594 C 68.253906 146.910156 68.09375 146.960938 67.972656 146.960938 L 58.445312 146.960938 C 57.851562 146.960938 57.304688 146.925781 56.796875 146.855469 C 56.300781 146.777344 55.847656 146.660156 55.441406 146.503906 C 54.558594 146.199219 53.859375 145.707031 53.339844 145.019531 C 52.800781 144.328125 52.417969 143.449219 52.195312 142.390625 C 52.101562 141.945312 52.019531 141.453125 51.960938 140.917969 C 51.894531 140.378906 51.859375 139.800781 51.84375 139.175781 L 51.84375 139.035156 L 51.890625 135.65625 C 51.941406 135.457031 52.042969 135.230469 52.195312 134.980469 C 52.582031 134.289062 53.191406 133.914062 54.015625 133.859375 L 67.867188 133.824219 C 67.976562 133.824219 68.125 133.875 68.324219 133.976562 C 68.515625 134.078125 68.613281 134.335938 68.613281 134.746094 L 68.613281 136.863281 C 68.613281 137.277344 68.515625 137.535156 68.324219 137.644531 C 68.125 137.746094 67.976562 137.796875 67.867188 137.796875 L 55.863281 137.796875 C 55.863281 137.796875 55.859375 137.898438 55.851562 138.101562 C 55.84375 138.296875 55.835938 138.519531 55.828125 138.765625 C 55.820312 139.019531 55.816406 139.242188 55.816406 139.445312 C 55.816406 139.640625 55.816406 139.738281 55.816406 139.738281 C 55.832031 139.808594 55.839844 139.886719 55.839844 139.96875 C 55.839844 140.050781 55.847656 140.121094 55.863281 140.191406 C 55.933594 140.691406 56.085938 141.09375 56.320312 141.394531 C 56.535156 141.671875 56.804688 141.871094 57.125 141.992188 C 57.328125 142.046875 57.539062 142.09375 57.757812 142.132812 C 57.980469 142.164062 58.238281 142.179688 58.527344 142.179688 Z M 54.203125 134.066406 Z M 68.007812 124.8125 C 68.105469 124.8125 68.253906 124.867188 68.449219 124.976562 C 68.652344 125.078125 68.753906 125.335938 68.753906 125.746094 L 68.753906 127.875 C 68.753906 128.28125 68.652344 128.535156 68.449219 128.644531 C 68.253906 128.757812 68.105469 128.808594 68.007812 128.808594 L 52.566406 128.785156 C 52.457031 128.785156 52.3125 128.734375 52.125 128.632812 C 51.9375 128.535156 51.84375 128.28125 51.84375 127.875 L 51.84375 125.769531 C 51.84375 125.34375 51.9375 125.078125 52.125 124.976562 C 52.3125 124.867188 52.457031 124.8125 52.566406 124.8125 Z M 68.007812 124.8125 "/>
    <path style=" stroke:none;fill-rule:nonzero;fill:#b8c7ff;fill-opacity:1;" d="M 98.449219 124.859375 C 98.574219 124.859375 98.734375 124.910156 98.929688 125.011719 C 99.128906 125.113281 99.234375 125.367188 99.234375 125.769531 L 99.234375 127.875 C 99.234375 128.316406 99.128906 128.59375 98.929688 128.691406 C 98.734375 128.785156 98.574219 128.832031 98.449219 128.832031 L 91.554688 128.832031 L 91.554688 146.070312 C 91.554688 146.484375 91.453125 146.742188 91.261719 146.84375 C 91.074219 146.9375 90.917969 146.984375 90.792969 146.984375 L 88.328125 146.984375 C 88.21875 146.984375 88.066406 146.9375 87.871094 146.84375 C 87.675781 146.742188 87.582031 146.484375 87.582031 146.070312 L 87.582031 128.832031 L 80.671875 128.832031 C 80.546875 128.832031 80.386719 128.785156 80.195312 128.691406 C 79.996094 128.59375 79.902344 128.316406 79.902344 127.875 L 79.902344 125.769531 C 79.902344 125.367188 79.996094 125.113281 80.195312 125.011719 C 80.386719 124.910156 80.546875 124.859375 80.671875 124.859375 Z M 98.449219 124.859375 "/>
    <path style=" stroke:none;fill-rule:nonzero;fill:#b8c7ff;fill-opacity:1;" d="M 124.765625 127.359375 L 132.300781 145.964844 C 132.410156 146.21875 132.4375 146.429688 132.382812 146.609375 C 132.367188 146.679688 132.316406 146.765625 132.230469 146.867188 C 132.152344 146.960938 132.011719 147.007812 131.800781 147.007812 L 128.925781 147.007812 C 128.550781 147.007812 128.289062 146.8125 128.140625 146.421875 L 121.492188 129.800781 C 121.46875 129.765625 121.457031 129.742188 121.457031 129.742188 L 121.351562 129.742188 C 121.351562 129.742188 121.34375 129.753906 121.339844 129.765625 C 121.332031 129.777344 121.320312 129.796875 121.304688 129.824219 L 117.867188 138.519531 L 121.1875 138.519531 C 121.566406 138.519531 121.832031 138.703125 121.96875 139.058594 L 122.941406 141.453125 C 123.023438 141.757812 122.988281 142.015625 122.835938 142.226562 C 122.6875 142.484375 122.453125 142.613281 122.132812 142.613281 L 116.253906 142.613281 L 114.722656 146.445312 C 114.574219 146.820312 114.328125 147.007812 113.976562 147.007812 L 111.019531 147.007812 C 110.800781 147.007812 110.652344 146.960938 110.574219 146.867188 C 110.496094 146.765625 110.445312 146.679688 110.421875 146.609375 C 110.367188 146.445312 110.386719 146.230469 110.480469 145.964844 L 117.972656 127.359375 C 118.328125 126.410156 118.722656 125.753906 119.152344 125.394531 C 119.207031 125.367188 119.269531 125.324219 119.339844 125.265625 C 119.410156 125.214844 119.480469 125.167969 119.550781 125.128906 C 120.089844 124.753906 120.707031 124.566406 121.410156 124.566406 C 122.140625 124.566406 122.804688 124.792969 123.394531 125.242188 C 123.988281 125.6875 124.390625 126.257812 124.601562 126.949219 C 124.636719 127.007812 124.671875 127.074219 124.695312 127.148438 C 124.722656 127.21875 124.746094 127.289062 124.765625 127.359375 Z M 124.765625 127.359375 "/>
    <path style=" stroke:none;fill-rule:nonzero;fill:#b8c7ff;fill-opacity:1;" d="M 159.074219 143.007812 C 159.199219 143.007812 159.355469 143.066406 159.542969 143.171875 C 159.730469 143.285156 159.824219 143.542969 159.824219 143.945312 L 159.824219 146.070312 C 159.824219 146.484375 159.730469 146.746094 159.542969 146.855469 C 159.355469 146.957031 159.199219 147.007812 159.074219 147.007812 L 150.214844 147.007812 C 149.039062 147.007812 148.035156 146.855469 147.214844 146.550781 C 146.371094 146.265625 145.671875 145.765625 145.121094 145.054688 C 144.597656 144.410156 144.210938 143.53125 143.964844 142.425781 C 143.710938 141.328125 143.589844 140.046875 143.589844 138.578125 L 143.589844 125.804688 C 143.589844 125.378906 143.6875 125.113281 143.882812 125.011719 C 144.074219 124.910156 144.234375 124.859375 144.359375 124.859375 L 146.839844 124.859375 C 146.9375 124.859375 147.085938 124.910156 147.28125 125.011719 C 147.484375 125.113281 147.585938 125.378906 147.585938 125.804688 L 147.585938 139.035156 C 147.585938 139.433594 147.59375 139.804688 147.609375 140.144531 C 147.632812 140.480469 147.667969 140.78125 147.714844 141.046875 C 147.792969 141.53125 147.949219 141.921875 148.183594 142.226562 C 148.359375 142.515625 148.617188 142.714844 148.953125 142.820312 C 149.3125 142.949219 149.777344 143.007812 150.355469 143.007812 Z M 159.074219 143.007812 "/>
    <path style=" stroke:none;fill-rule:nonzero;fill:#d9d9d9;fill-opacity:1;" d="M 190.855469 124.859375 C 191.078125 124.859375 191.238281 124.976562 191.332031 125.210938 C 191.386719 125.429688 191.359375 125.636719 191.25 125.828125 L 183.117188 140.191406 L 183.117188 146.070312 C 183.117188 146.484375 183.015625 146.742188 182.8125 146.84375 C 182.617188 146.9375 182.46875 146.984375 182.367188 146.984375 L 179.890625 146.984375 C 179.789062 146.984375 179.636719 146.9375 179.433594 146.84375 C 179.238281 146.742188 179.144531 146.484375 179.144531 146.070312 L 179.144531 140.191406 L 171.089844 125.828125 C 170.980469 125.636719 170.953125 125.4375 171.007812 125.234375 C 171.0625 124.984375 171.222656 124.859375 171.488281 124.859375 L 174.550781 124.859375 C 174.671875 124.859375 174.808594 124.890625 174.945312 124.953125 C 175.09375 125.015625 175.222656 125.15625 175.332031 125.371094 L 181.1875 136.113281 L 187.089844 125.347656 C 187.199219 125.148438 187.324219 125.015625 187.464844 124.953125 C 187.605469 124.890625 187.738281 124.859375 187.875 124.859375 Z M 190.855469 124.859375 "/>
    <path style=" stroke:none;fill-rule:nonzero;fill:#d9d9d9;fill-opacity:1;" d="M 205.722656 124.859375 C 205.828125 124.859375 205.980469 124.914062 206.175781 125.023438 C 206.378906 125.132812 206.480469 125.394531 206.480469 125.804688 L 206.480469 146.070312 C 206.480469 146.484375 206.378906 146.746094 206.175781 146.855469 C 205.980469 146.957031 205.828125 147.007812 205.722656 147.007812 L 203.253906 147.007812 C 203.144531 147.007812 202.992188 146.957031 202.800781 146.855469 C 202.601562 146.746094 202.507812 146.484375 202.507812 146.070312 L 202.507812 125.804688 C 202.507812 125.394531 202.601562 125.132812 202.800781 125.023438 C 202.992188 124.914062 203.144531 124.859375 203.253906 124.859375 Z M 205.722656 124.859375 "/>
    <path style=" stroke:none;fill-rule:nonzero;fill:#d9d9d9;fill-opacity:1;" d="M 234.023438 124.859375 C 234.128906 124.859375 234.28125 124.914062 234.476562 125.023438 C 234.679688 125.132812 234.78125 125.394531 234.78125 125.804688 L 234.78125 127.875 C 234.78125 128.304688 234.679688 128.570312 234.476562 128.679688 C 234.28125 128.78125 234.128906 128.832031 234.023438 128.832031 L 224.390625 128.832031 C 223.785156 128.832031 223.316406 128.898438 222.988281 129.019531 C 222.667969 129.128906 222.398438 129.328125 222.183594 129.617188 C 221.988281 129.882812 221.835938 130.277344 221.726562 130.796875 C 221.695312 131.046875 221.660156 131.339844 221.632812 131.671875 C 221.609375 132 221.597656 132.371094 221.597656 132.78125 L 221.597656 139.035156 C 221.597656 139.433594 221.609375 139.804688 221.632812 140.144531 C 221.660156 140.480469 221.695312 140.78125 221.726562 141.046875 C 221.777344 141.304688 221.84375 141.53125 221.914062 141.722656 C 221.984375 141.917969 222.070312 142.085938 222.183594 142.226562 C 222.398438 142.515625 222.667969 142.714844 222.988281 142.820312 C 223.316406 142.949219 223.785156 143.007812 224.390625 143.007812 L 234.023438 143.007812 C 234.128906 143.007812 234.28125 143.066406 234.476562 143.171875 C 234.679688 143.285156 234.78125 143.542969 234.78125 143.945312 L 234.78125 146.070312 C 234.78125 146.484375 234.679688 146.746094 234.476562 146.855469 C 234.28125 146.957031 234.128906 147.007812 234.023438 147.007812 L 224.25 147.007812 C 223.089844 147.007812 222.078125 146.855469 221.222656 146.550781 C 220.398438 146.265625 219.707031 145.773438 219.15625 145.078125 C 218.59375 144.363281 218.199219 143.484375 217.976562 142.449219 C 217.847656 141.910156 217.757812 141.324219 217.707031 140.683594 C 217.648438 140.039062 217.625 139.335938 217.625 138.578125 L 217.625 133.261719 C 217.625 132.53125 217.648438 131.84375 217.707031 131.203125 C 217.757812 130.558594 217.847656 129.976562 217.976562 129.453125 C 218.199219 128.375 218.59375 127.5 219.15625 126.820312 C 219.667969 126.144531 220.359375 125.640625 221.222656 125.3125 C 222.078125 125.011719 223.089844 124.859375 224.25 124.859375 Z M 234.023438 124.859375 "/>
    <path style=" stroke:none;fill-rule:nonzero;fill:#d9d9d9;fill-opacity:1;" d="M 258.886719 133.777344 C 260.28125 133.777344 261.347656 134.265625 262.089844 135.25 C 262.78125 136.214844 263.128906 137.574219 263.128906 139.328125 L 263.128906 141.6875 C 263.128906 143.230469 262.789062 144.492188 262.113281 145.476562 C 261.410156 146.480469 260.316406 146.984375 258.839844 146.984375 L 246.730469 146.984375 C 246.605469 146.984375 246.441406 146.9375 246.238281 146.84375 C 246.042969 146.742188 245.949219 146.484375 245.949219 146.070312 L 245.949219 143.921875 C 245.949219 143.507812 246.042969 143.253906 246.238281 143.160156 C 246.441406 143.0625 246.605469 143.007812 246.730469 143.007812 L 258.183594 143.007812 C 258.417969 143.007812 258.585938 142.972656 258.6875 142.890625 C 258.785156 142.808594 258.863281 142.730469 258.921875 142.660156 C 259.074219 142.394531 259.15625 142.023438 259.15625 141.535156 L 259.15625 139.222656 C 259.15625 138.5625 259.042969 138.152344 258.828125 137.996094 C 258.617188 137.832031 258.414062 137.75 258.21875 137.75 L 250.167969 137.75 C 249.605469 137.75 249.03125 137.679688 248.449219 137.539062 C 247.871094 137.394531 247.375 137.042969 246.964844 136.488281 C 246.269531 135.503906 245.925781 134.074219 245.925781 132.1875 L 245.925781 130.152344 C 245.925781 128.582031 246.269531 127.308594 246.964844 126.34375 C 247.664062 125.355469 248.746094 124.859375 250.214844 124.859375 L 261.785156 124.859375 C 261.890625 124.859375 262.042969 124.910156 262.238281 125.011719 C 262.441406 125.113281 262.542969 125.367188 262.542969 125.769531 L 262.542969 127.921875 C 262.542969 128.335938 262.441406 128.59375 262.238281 128.691406 C 262.042969 128.785156 261.890625 128.832031 261.785156 128.832031 L 250.855469 128.832031 C 250.628906 128.832031 250.464844 128.875 250.367188 128.949219 C 250.261719 129.019531 250.183594 129.097656 250.132812 129.183594 C 249.992188 129.472656 249.921875 129.847656 249.921875 130.316406 L 249.921875 132.304688 C 249.921875 132.964844 250.019531 133.378906 250.226562 133.542969 C 250.433594 133.699219 250.636719 133.777344 250.832031 133.777344 Z M 258.886719 133.777344 "/>
  </g>
</svg>